<?xml version="1.0" standalone="no"?>
<!DOCTYPE svg PUBLIC "-//W3C//DTD SVG 20010904//EN"
 "http://www.w3.org/TR/2001/REC-SVG-20010904/DTD/svg10.dtd">
<svg version="1.0" xmlns="http://www.w3.org/2000/svg"
 width="96.000000pt" height="96.000000pt" viewBox="0 0 96.000000 96.000000"
 preserveAspectRatio="xMidYMid meet">
<metadata>
Created by potrace 1.14, written by Peter Selinger 2001-2017
</metadata>
<g transform="translate(0.000000,96.000000) scale(0.100000,-0.100000)"
fill="#000000" stroke="none">
<path d="M364 861 c-75 -25 -138 -66 -182 -117 l-39 -46 -26 26 c-14 14 -29
26 -32 26 -3 0 -5 -43 -5 -95 l0 -95 95 0 c52 0 95 3 95 6 0 4 -16 21 -34 39
l-35 33 22 29 c73 99 205 150 325 124 243 -52 332 -360 155 -537 -57 -58 -134
-89 -221 -89 -70 0 -73 -1 -78 -25 -3 -14 -7 -30 -9 -37 -5 -15 9 -19 70 -22
234 -11 428 190 412 425 -11 165 -126 310 -283 357 -66 20 -170 19 -230 -2z"/>
<path d="M470 699 c0 -13 -10 -23 -28 -30 -55 -19 -78 -98 -47 -159 8 -16 37
-41 64 -55 35 -20 51 -35 54 -53 6 -30 -8 -62 -26 -62 -27 0 -40 17 -46 60 -1
3 -17 6 -36 7 -31 1 -35 -2 -35 -24 0 -45 32 -88 73 -98 18 -5 23 -12 20 -26
-4 -14 0 -19 16 -19 12 0 21 6 21 15 0 8 13 21 30 30 89 46 83 157 -12 215
-49 31 -69 60 -61 91 11 39 43 29 57 -18 6 -18 15 -23 42 -23 31 0 34 3 34 29
0 32 -43 91 -66 91 -8 0 -14 10 -14 25 0 18 -5 25 -20 25 -14 0 -20 -7 -20
-21z"/>
<path d="M83 439 c3 -22 7 -43 10 -45 3 -3 21 -2 40 1 25 5 34 11 32 23 -2 10
-4 27 -4 40 -1 19 -6 22 -42 22 l-42 0 6 -41z"/>
<path d="M152 318 l-32 -20 22 -31 c12 -18 23 -34 24 -35 3 -5 64 40 64 47 0
3 -10 18 -23 32 l-22 27 -33 -20z"/>
<path d="M257 196 l-26 -33 39 -22 39 -22 16 30 c19 38 20 36 -14 60 l-29 21
-25 -34z"/>
</g>
</svg>
